<?xml version="1.0" standalone="no"?>
<!DOCTYPE svg PUBLIC "-//W3C//DTD SVG 20010904//EN"
 "http://www.w3.org/TR/2001/REC-SVG-20010904/DTD/svg10.dtd">
<svg version="1.0" xmlns="http://www.w3.org/2000/svg"
 width="647.000000pt" height="647.000000pt" viewBox="0 0 647.000000 647.000000"
 preserveAspectRatio="xMidYMid meet">
<metadata>
Created by potrace 1.14, written by Peter Selinger 2001-2017
</metadata>
<g transform="translate(0.000000,647.000000) scale(0.100000,-0.100000)"
fill="#000000" stroke="none">
<path d="M1590 6191 c0 -14 -902 -786 -914 -783 -6 2 -8 0 -4 -3 4 -4 -5 -17
-20 -29 -14 -11 -47 -39 -72 -62 -25 -22 -62 -56 -83 -75 l-37 -34 -174 -2350
c-95 -1292 -172 -2351 -171 -2353 1 -1 278 -70 616 -153 l614 -150 2482 264
c1366 145 2486 266 2490 270 6 6 -241 3578 -252 3652 -5 30 -12 34 -264 135
-143 57 -257 109 -254 114 3 5 1 6 -5 3 -8 -6 -553 202 -611 233 -9 5 -66 28
-128 52 -61 23 -109 47 -106 52 4 5 1 6 -5 2 -15 -9 -373 135 -365 147 3 6 1
7 -6 3 -11 -7 -168 48 -181 63 -3 3 -13 7 -23 9 -10 2 -53 18 -95 36 -42 17
-305 123 -584 235 -279 112 -505 207 -502 212 3 5 -1 6 -8 4 -8 -3 -74 19
-148 50 -74 31 -188 76 -252 102 -69 26 -115 50 -111 56 3 6 1 7 -6 3 -14 -9
-352 124 -345 136 3 4 -1 5 -8 3 -8 -3 -107 33 -222 80 -200 81 -246 96 -246
76z"/>
<path d="M2195 6031 c-3 -5 -2 -12 3 -15 5 -3 9 1 9 9 0 17 -3 19 -12 6z"/>
<path d="M2870 5876 c0 -2 7 -7 16 -10 8 -3 12 -2 9 4 -6 10 -25 14 -25 6z"/>
</g>
</svg>
